<svg xmlns="http://www.w3.org/2000/svg" width="256" height="256" viewBox="0 0 100 100"><rect width="100" height="100" rx="20" fill="#000000"></rect><path fill="#fff" d="M4.46 52.71L4.46 50.57L26.90 38.94L26.90 42.62Q26.90 43.11 26.67 43.47Q26.44 43.84 25.86 44.13L25.86 44.13L12.84 50.74Q12.26 51.06 11.60 51.28Q10.95 51.49 10.23 51.67L10.23 51.67Q10.95 51.81 11.60 52.04Q12.26 52.28 12.84 52.57L12.84 52.57L25.86 59.15Q26.44 59.44 26.67 59.82Q26.90 60.19 26.90 60.66L26.90 60.66L26.90 64.37L4.46 52.71ZM61.79 71.16L58.71 71.16Q57.61 71.16 57.32 70.08L57.32 70.08L56.86 66.52Q54.97 68.81 52.55 70.18Q50.13 71.56 47.00 71.56L47.00 71.56Q44.48 71.56 42.42 70.59Q40.36 69.62 38.91 67.73Q37.46 65.85 36.67 63.04Q35.89 60.22 35.89 56.57L35.89 56.57Q35.89 53.32 36.76 50.52Q37.63 47.72 39.27 45.66Q40.91 43.61 43.26 42.43Q45.61 41.26 48.59 41.26L48.59 41.26Q51.29 41.26 53.20 42.17Q55.12 43.08 56.63 44.74L56.63 44.74L56.63 28.44L61.79 28.44L61.79 71.16ZM48.71 67.39L48.71 67.39Q51.23 67.39 53.13 66.23Q55.03 65.07 56.63 62.95L56.63 62.95L56.63 48.74Q55.21 46.82 53.51 46.06Q51.81 45.29 49.75 45.29L49.75 45.29Q45.64 45.29 43.43 48.22Q41.23 51.15 41.23 56.57L41.23 56.57Q41.23 59.44 41.72 61.48Q42.21 63.53 43.17 64.85Q44.13 66.17 45.52 66.78Q46.91 67.39 48.71 67.39ZM95.54 52.71L73.13 64.37L73.13 60.66Q73.13 60.19 73.36 59.82Q73.59 59.44 74.17 59.15L74.17 59.15L87.19 52.57Q87.77 52.28 88.40 52.04Q89.02 51.81 89.74 51.67L89.74 51.67Q89.02 51.49 88.40 51.28Q87.77 51.06 87.19 50.74L87.19 50.74L74.17 44.13Q73.59 43.84 73.36 43.47Q73.13 43.11 73.13 42.62L73.13 42.62L73.13 38.94L95.54 50.57L95.54 52.71Z"></path></svg>